<svg version="1.1" id="Layer_1" xmlns="http://www.w3.org/2000/svg" xmlns:xlink="http://www.w3.org/1999/xlink" x="0px" y="0px"
	 width="100%" viewBox="0 0 1402 1122" enable-background="new 0 0 1402 1122" xml:space="preserve">
<path fill="#010000" opacity="1.000000" stroke="none" 
	d="
M873.000000,1123.000000 
	C582.000000,1123.000000 291.500000,1123.000000 1.000000,1123.000000 
	C1.000000,749.000000 1.000000,375.000000 1.000000,1.000000 
	C468.333344,1.000000 935.666687,1.000000 1403.000000,1.000000 
	C1403.000000,375.000000 1403.000000,749.000000 1403.000000,1123.000000 
	C1226.500000,1123.000000 1050.000000,1123.000000 873.000000,1123.000000 
M448.429413,965.711792 
	C447.285065,964.807861 446.140686,963.903931 444.992737,962.125488 
	C444.994324,942.083679 444.995941,922.041809 445.715179,901.871643 
	C449.098206,897.768188 448.954926,896.196350 444.993164,893.338806 
	C444.993011,892.898254 444.992828,892.457642 444.917053,891.313477 
	C440.650177,888.921936 436.534271,885.046509 432.070282,884.592529 
	C428.270752,884.205994 424.017212,887.652039 420.064362,889.604492 
	C416.905121,891.164917 415.711060,893.861694 415.962219,897.429626 
	C416.427826,904.042480 416.972137,910.673279 416.930084,917.293091 
	C416.863159,927.830627 416.197601,938.363220 416.052246,948.901672 
	C415.889069,960.733154 415.700104,972.584534 416.278839,984.390198 
	C416.405884,986.981201 419.233185,990.413940 421.713898,991.631165 
	C424.019928,992.762695 428.317108,993.270935 429.309692,989.627136 
	C426.963959,987.997314 425.112427,986.710876 424.161957,985.463623 
	C444.513397,985.463623 464.864838,985.463623 485.595581,985.463623 
	C485.595581,980.576782 485.694214,976.292542 485.507080,972.020813 
	C485.472260,971.225769 484.288818,970.480957 483.819763,968.811340 
	C482.489258,967.877808 481.175934,966.164612 479.825531,966.134827 
	C469.560364,965.908508 459.287933,966.011475 448.429413,965.711792 
M816.502563,807.223206 
	C862.988708,807.964661 909.474731,808.717957 955.961121,809.443970 
	C997.782837,810.097290 1039.604370,810.776062 1081.428345,811.210999 
	C1083.773926,811.235413 1086.588501,809.568542 1088.267944,807.812317 
	C1088.896973,807.154602 1087.471313,803.371033 1086.029175,802.066895 
	C1062.550171,780.835388 1038.922363,759.768311 1015.318481,738.675110 
	C1004.159546,728.703003 992.979980,718.753967 981.958618,708.927246 
	C1047.436890,632.462524 1079.411743,544.862976 1069.506470,444.449646 
	C1059.588257,343.907593 1011.939453,263.680817 931.326416,202.374435 
	C935.032288,199.330078 938.265137,196.137375 942.004272,193.731552 
	C947.299683,190.324341 950.018188,186.162384 948.840271,179.669098 
	C948.310303,176.747910 948.812866,173.647964 948.374329,170.699417 
	C947.863098,167.262589 946.834961,163.902618 946.031128,160.509308 
	C942.573242,161.659744 938.866150,162.350143 935.710754,164.059158 
	C929.672791,167.329407 923.948547,171.179001 918.094055,174.788193 
	C918.314819,171.868744 919.307434,169.682098 920.458069,167.581985 
	C925.737061,157.947311 931.161194,148.390060 936.286743,138.674973 
	C937.379639,136.603455 938.079346,133.930161 937.864563,131.636749 
	C937.212830,124.680176 936.121155,117.758324 935.012878,110.853119 
	C934.164917,105.569794 930.860962,104.298058 926.495239,107.473824 
	C913.701355,116.780319 900.948914,126.143661 888.162048,135.459854 
	C876.616943,143.871277 865.047974,152.249832 853.405762,160.703735 
	C852.478943,159.952972 851.795288,159.493896 851.224304,158.922256 
	C843.099304,150.788422 835.090881,142.533188 826.776489,134.598434 
	C825.388245,133.273682 822.267090,132.352310 820.712158,133.021942 
	C819.231628,133.659470 818.130066,136.568710 817.958313,138.573135 
	C817.562683,143.190552 817.832825,147.865021 817.832825,152.704132 
	C812.990356,152.075470 808.762512,150.973099 805.168701,146.975037 
	C798.942139,140.048248 792.017700,133.749069 785.389954,127.182640 
	C783.217285,125.030106 781.039673,122.712585 777.624573,124.704094 
	C774.463440,126.547546 775.232849,129.369507 775.872437,132.238922 
	C776.654602,135.747787 777.164612,139.317322 777.899902,143.468384 
	C774.992188,143.109177 772.728333,142.764618 770.452026,142.558640 
	C753.709534,141.043533 736.978882,138.484818 720.217590,138.259796 
	C668.757263,137.568924 619.831360,149.234314 573.308289,171.022079 
	C529.942261,191.331314 491.673615,218.660690 460.053253,254.827515 
	C422.077179,298.263947 397.144562,348.455231 383.338104,404.334717 
	C382.880676,406.186005 382.085693,408.128357 380.909363,409.596680 
	C376.328918,415.314148 371.467102,420.805084 366.827057,426.476105 
	C356.067413,439.626343 345.307800,452.778412 334.758240,466.096130 
	C333.658783,467.484009 333.031464,470.668274 333.856934,471.804443 
	C334.928986,473.280121 337.649475,474.059235 339.710846,474.166168 
	C341.561890,474.262146 343.494690,473.080811 345.368073,472.398926 
	C355.601166,468.674438 365.827087,464.930145 376.391174,461.070007 
	C376.391174,462.302582 376.418793,463.115601 376.387238,463.926331 
	C373.974121,525.947998 388.161011,584.164368 417.198425,638.775208 
	C456.914917,713.470276 516.204712,766.690918 594.662964,798.288879 
	C633.285095,813.843445 673.602966,821.147949 715.255676,820.730957 
	C719.026245,820.693298 721.200439,821.723206 723.084961,825.122314 
	C726.872559,831.953735 731.234558,838.467896 735.393921,845.091431 
	C737.931030,849.131592 740.683350,849.742126 744.527893,847.055359 
	C759.409912,836.654602 774.528320,826.565979 789.032166,815.660706 
	C797.102417,809.592651 805.201599,805.428467 816.502563,807.223206 
M145.688721,897.038025 
	C155.039581,922.623596 164.315903,948.236755 173.773865,973.782654 
	C178.260590,985.901306 178.422211,985.931580 191.428314,985.269653 
	C192.921921,985.193665 195.036377,983.780884 195.655594,982.433228 
	C198.153961,976.995422 200.174835,971.338623 202.379639,965.765625 
	C206.378174,955.658630 210.382095,945.553833 214.896652,934.153015 
	C220.029846,948.130371 224.640610,960.731873 229.285950,973.320740 
	C233.789352,985.524841 233.807907,985.350830 246.694000,985.576904 
	C250.255066,985.639343 251.584564,984.261475 252.734604,981.249756 
	C261.682007,957.817749 270.779022,934.442932 279.810883,911.043213 
	C282.406036,904.319763 284.939423,897.572510 287.675323,890.377991 
	C282.075256,890.377991 277.251862,890.570190 272.453217,890.308594 
	C269.386536,890.141418 268.127441,891.381165 267.131409,894.139343 
	C259.852844,914.295593 252.416168,934.394775 245.015518,954.506897 
	C244.480682,955.960449 243.836014,957.373657 242.887344,959.662170 
	C242.310120,958.157654 242.084778,957.609131 241.887527,957.050598 
	C234.517456,936.183716 227.187286,915.302490 219.708252,894.474731 
	C219.138229,892.887390 217.598816,890.572815 216.369492,890.481140 
	C210.650757,890.054932 204.882553,890.292419 198.485321,890.292419 
	C200.480362,896.021118 201.803360,901.019958 203.948807,905.636658 
	C206.014282,910.081238 205.750656,913.908142 203.888428,918.361816 
	C198.269470,931.800049 193.080765,945.418152 187.236511,960.199829 
	C178.809769,936.132690 170.812729,913.292847 162.923218,890.760071 
	C156.326492,890.760071 150.101868,890.760071 143.504120,890.760071 
	C144.224701,892.943359 144.787689,894.649109 145.688721,897.038025 
M900.249146,953.369202 
	C917.938782,945.392273 925.617249,929.517517 920.051575,912.428894 
	C915.706848,899.088684 902.931091,890.537354 886.559021,890.372192 
	C871.077209,890.216003 855.592346,890.345947 840.108887,890.385498 
	C838.848511,890.388672 837.588806,890.664246 835.892578,890.864868 
	C835.892578,907.588806 835.892578,923.967896 835.892578,940.728760 
	C831.305542,940.728760 827.200500,940.728760 822.989624,940.728760 
	C822.989624,945.879517 822.989624,950.632812 822.989624,955.891907 
	C827.497070,955.891907 831.735046,955.891907 836.438843,955.891907 
	C836.438843,965.950867 836.438843,975.508728 836.438843,985.083252 
	C842.497986,985.083252 848.057739,985.083252 854.119446,985.083252 
	C854.119446,975.269775 854.119446,965.874939 854.119446,956.088562 
	C862.100952,956.088562 869.581787,955.889221 877.038513,956.225464 
	C878.959534,956.312012 881.411987,957.621094 882.582031,959.158691 
	C888.424622,966.836792 893.885681,974.804138 899.579895,982.597412 
	C900.393005,983.710266 901.714722,985.158813 902.854248,985.207520 
	C908.915344,985.466797 914.993408,985.329529 921.977722,985.329529 
	C914.310303,974.365601 907.265625,964.292175 900.249146,953.369202 
M1027.469482,953.792725 
	C1022.856750,938.118530 1018.244019,922.444397 1013.403381,905.995911 
	C1018.907715,905.995911 1023.461426,905.995911 1027.942627,905.995911 
	C1027.942627,900.481445 1027.942627,895.540588 1027.942627,890.757324 
	C1000.925659,890.757324 974.198608,890.757324 947.576782,890.757324 
	C947.576782,896.089539 947.576782,900.984436 947.576782,906.413452 
	C953.179626,906.413452 958.400391,906.413452 964.173828,906.413452 
	C955.283997,932.971008 946.615234,958.867859 937.721619,985.436707 
	C942.953552,985.436707 947.586731,985.201660 952.181519,985.520386 
	C955.182800,985.728455 956.194092,984.457458 956.966370,981.876648 
	C958.727661,975.990906 960.935791,970.237122 962.639282,964.336487 
	C963.431274,961.592957 964.713867,960.739319 967.542603,960.770203 
	C981.028076,960.917664 994.517212,960.921143 1008.002502,960.761719 
	C1010.982300,960.726440 1012.453918,961.530945 1013.200867,964.532410 
	C1014.684265,970.493347 1016.437988,976.396179 1018.352478,982.233704 
	C1018.767151,983.498047 1020.276123,985.230347 1021.375122,985.301819 
	C1026.423462,985.630432 1031.505005,985.446533 1037.142212,985.446533 
	C1033.825073,974.529724 1030.788208,964.535461 1027.469482,953.792725 
M372.212616,893.281006 
	C357.404022,886.905273 342.411316,886.761475 327.448639,892.454163 
	C297.640015,903.795044 286.212311,940.694153 304.918365,966.564392 
	C317.180847,983.523315 334.966309,988.780029 355.155548,987.051819 
	C377.911957,985.103821 395.992767,968.812012 400.110291,946.798401 
	C404.255768,924.635498 393.656860,903.934998 372.212616,893.281006 
M1214.499634,985.399963 
	C1229.940186,985.399963 1245.380737,985.399963 1260.724609,985.399963 
	C1260.724609,979.903625 1260.724609,975.003784 1260.724609,969.742432 
	C1241.053711,969.742432 1221.781006,969.742432 1202.281738,969.742432 
	C1202.281738,962.144409 1202.281738,954.929443 1202.281738,947.114258 
	C1219.522217,947.114258 1236.429443,947.114258 1253.355713,947.114258 
	C1253.355713,941.732239 1253.355713,936.956238 1253.355713,931.681213 
	C1236.139526,931.681213 1219.220215,931.681213 1202.270508,931.681213 
	C1202.270508,922.951965 1202.270508,914.730652 1202.270508,906.018188 
	C1222.009033,906.018188 1241.412109,906.018188 1260.848511,906.018188 
	C1260.848511,900.607117 1260.848511,895.699280 1260.848511,890.671021 
	C1235.312744,890.671021 1210.091675,890.671021 1184.460938,890.671021 
	C1184.460938,904.443970 1184.460938,917.871582 1184.460938,931.762695 
	C1179.647339,931.762695 1175.225098,931.762695 1170.770752,931.762695 
	C1170.770752,937.130066 1170.770752,942.017822 1170.770752,947.563354 
	C1175.479858,947.563354 1179.870728,947.563354 1184.689819,947.563354 
	C1184.689819,960.489563 1184.689819,972.754517 1184.689819,985.399048 
	C1194.591187,985.399048 1204.045410,985.399048 1214.499634,985.399963 
M1104.695068,934.765625 
	C1111.277588,939.298157 1117.759766,943.987976 1124.491943,948.286194 
	C1127.203491,950.017334 1128.303589,951.831543 1128.230225,955.090149 
	C1128.006836,965.034912 1128.149048,974.987793 1128.149048,985.061035 
	C1134.239014,985.061035 1139.802246,985.061035 1145.505371,985.061035 
	C1145.505371,953.417664 1145.505371,922.165894 1145.505371,890.697205 
	C1139.627686,890.697205 1134.053101,890.697205 1127.942627,890.697205 
	C1127.942627,904.195679 1127.942627,917.377197 1127.942627,931.513550 
	C1110.372925,918.921204 1093.363892,907.247192 1076.996216,894.734192 
	C1070.833984,890.023132 1064.765503,889.968628 1058.000244,890.582397 
	C1058.000244,922.316467 1058.000244,953.707642 1058.000244,985.044678 
	C1063.786865,985.044678 1069.204956,985.044678 1075.139160,985.044678 
	C1075.139160,961.509766 1075.139160,938.311096 1075.139160,914.117004 
	C1085.353638,921.233093 1094.744141,927.775085 1104.695068,934.765625 
M655.776123,922.643250 
	C652.580872,917.423645 649.385681,912.204041 645.622375,906.056458 
	C656.156311,906.056458 665.703613,906.056458 675.210205,906.056458 
	C675.210205,900.484009 675.210205,895.597717 675.210205,890.354492 
	C659.332703,890.354492 643.859436,890.325562 628.386353,890.367065 
	C621.018066,890.386841 618.480530,894.998169 622.283081,901.427917 
	C625.896301,907.537598 629.603821,913.591675 633.278687,919.684692 
	C607.639404,933.490784 599.622253,953.235413 611.596375,972.193909 
	C616.858826,980.525940 624.835999,984.722717 634.139343,986.442871 
	C647.552063,988.922974 658.044556,983.259521 666.906372,973.056274 
	C669.138245,976.660400 670.967590,979.790527 672.993713,982.787720 
	C673.671448,983.790283 674.826538,985.124390 675.806519,985.161255 
	C681.697571,985.382996 687.601196,985.271301 694.212769,985.271301 
	C681.194763,964.096130 668.651672,943.693420 655.776123,922.643250 
M493.631165,939.498169 
	C493.631165,941.954468 493.631165,944.410828 493.631165,947.402344 
	C498.193481,947.402344 502.277679,947.402344 506.968445,947.402344 
	C506.968445,960.311768 506.968445,972.691589 506.968445,985.075195 
	C513.156982,985.075195 518.722290,985.075195 524.727905,985.075195 
	C524.727905,972.433716 524.727905,960.169250 524.727905,947.352295 
	C540.072388,947.352295 554.973328,947.352295 570.101624,947.352295 
	C570.101624,941.889832 570.101624,936.992920 570.101624,931.733154 
	C554.909912,931.733154 539.985657,931.733154 524.840454,931.733154 
	C524.840454,923.138184 524.840454,914.908997 524.840454,906.217407 
	C542.072205,906.217407 558.988342,906.217407 576.032837,906.217407 
	C576.032837,900.695007 576.032837,895.641113 576.032837,890.780151 
	C552.793884,890.780151 529.921448,890.780151 506.661560,890.780151 
	C506.661560,904.644409 506.661560,918.053772 506.661560,931.833496 
	C502.170563,931.833496 498.064026,931.833496 493.626678,931.833496 
	C493.626678,934.330933 493.626678,936.462402 493.631165,939.498169 
M728.213257,953.187744 
	C740.848999,990.470276 788.267273,994.889099 812.154297,977.880127 
	C810.127747,973.508545 808.075867,969.082336 805.919250,964.430176 
	C796.166016,969.487122 786.338684,971.818542 776.005676,970.840088 
	C763.681763,969.673035 753.593811,964.380493 747.943298,952.859436 
	C742.108398,940.962036 742.807434,929.069946 750.728394,918.425171 
	C759.860901,906.152161 772.978088,903.210876 787.326172,905.619568 
	C793.611450,906.674744 799.626160,909.341797 806.224609,911.422180 
	C808.259644,907.168579 810.452820,902.584473 812.623413,898.047485 
	C800.205139,888.899658 779.427856,886.042664 762.136780,890.963928 
	C735.076599,898.665588 720.284485,925.323669 728.213257,953.187744 
z"/>
<path fill="#F4F3F4" opacity="1.000000" stroke="none" 
	d="
M816.003479,807.224304 
	C805.201599,805.428467 797.102417,809.592651 789.032166,815.660706 
	C774.528320,826.565979 759.409912,836.654602 744.527893,847.055359 
	C740.683350,849.742126 737.931030,849.131592 735.393921,845.091431 
	C731.234558,838.467896 726.872559,831.953735 723.084961,825.122314 
	C721.200439,821.723206 719.026245,820.693298 715.255676,820.730957 
	C673.602966,821.147949 633.285095,813.843445 594.662964,798.288879 
	C516.204712,766.690918 456.914917,713.470276 417.198425,638.775208 
	C388.161011,584.164368 373.974121,525.947998 376.387238,463.926331 
	C376.418793,463.115601 376.391174,462.302582 376.391174,461.070007 
	C365.827087,464.930145 355.601166,468.674438 345.368073,472.398926 
	C343.494690,473.080811 341.561890,474.262146 339.710846,474.166168 
	C337.649475,474.059235 334.928986,473.280121 333.856934,471.804443 
	C333.031464,470.668274 333.658783,467.484009 334.758240,466.096130 
	C345.307800,452.778412 356.067413,439.626343 366.827057,426.476105 
	C371.467102,420.805084 376.328918,415.314148 380.909363,409.596680 
	C382.085693,408.128357 382.880676,406.186005 383.338104,404.334717 
	C397.144562,348.455231 422.077179,298.263947 460.053253,254.827515 
	C491.673615,218.660690 529.942261,191.331314 573.308289,171.022079 
	C619.831360,149.234314 668.757263,137.568924 720.217590,138.259796 
	C736.978882,138.484818 753.709534,141.043533 770.452026,142.558640 
	C772.728333,142.764618 774.992188,143.109177 777.899902,143.468384 
	C777.164612,139.317322 776.654602,135.747787 775.872437,132.238922 
	C775.232849,129.369507 774.463440,126.547546 777.624573,124.704094 
	C781.039673,122.712585 783.217285,125.030106 785.389954,127.182640 
	C792.017700,133.749069 798.942139,140.048248 805.168701,146.975037 
	C808.762512,150.973099 812.990356,152.075470 817.832825,152.704132 
	C817.832825,147.865021 817.562683,143.190552 817.958313,138.573135 
	C818.130066,136.568710 819.231628,133.659470 820.712158,133.021942 
	C822.267090,132.352310 825.388245,133.273682 826.776489,134.598434 
	C835.090881,142.533188 843.099304,150.788422 851.224304,158.922256 
	C851.795288,159.493896 852.478943,159.952972 853.405762,160.703735 
	C865.047974,152.249832 876.616943,143.871277 888.162048,135.459854 
	C900.948914,126.143661 913.701355,116.780319 926.495239,107.473824 
	C930.860962,104.298058 934.164917,105.569794 935.012878,110.853119 
	C936.121155,117.758324 937.212830,124.680176 937.864563,131.636749 
	C938.079346,133.930161 937.379639,136.603455 936.286743,138.674973 
	C931.161194,148.390060 925.737061,157.947311 920.458069,167.581985 
	C919.307434,169.682098 918.314819,171.868744 918.094055,174.788193 
	C923.948547,171.179001 929.672791,167.329407 935.710754,164.059158 
	C938.866150,162.350143 942.573242,161.659744 946.031128,160.509308 
	C946.834961,163.902618 947.863098,167.262589 948.374329,170.699417 
	C948.812866,173.647964 948.310303,176.747910 948.840271,179.669098 
	C950.018188,186.162384 947.299683,190.324341 942.004272,193.731552 
	C938.265137,196.137375 935.032288,199.330078 931.326416,202.374435 
	C1011.939453,263.680817 1059.588257,343.907593 1069.506470,444.449646 
	C1079.411743,544.862976 1047.436890,632.462524 981.958618,708.927246 
	C992.979980,718.753967 1004.159546,728.703003 1015.318481,738.675110 
	C1038.922363,759.768311 1062.550171,780.835388 1086.029175,802.066895 
	C1087.471313,803.371033 1088.896973,807.154602 1088.267944,807.812317 
	C1086.588501,809.568542 1083.773926,811.235413 1081.428345,811.210999 
	C1039.604370,810.776062 997.782837,810.097290 955.961121,809.443970 
	C909.474731,808.717957 862.988708,807.964661 816.003479,807.224304 
M553.014587,406.682983 
	C552.583618,407.026764 552.152649,407.370575 551.027466,407.849670 
	C538.300110,414.617981 525.572754,421.386292 512.557312,428.307770 
	C516.476440,442.827942 520.278137,456.912903 524.029053,471.790527 
	C525.990234,479.822510 527.951355,487.854462 529.851562,495.636780 
	C537.371887,495.636780 544.362854,495.636780 552.139099,495.636780 
	C546.379578,490.515533 541.216370,486.055481 536.208252,481.427521 
	C532.567261,478.062897 529.131348,474.476318 525.726074,470.120667 
	C528.337646,456.476196 530.889282,442.819611 533.648376,429.205048 
	C533.942017,427.755981 535.303650,426.411407 536.419006,425.259735 
	C541.832397,419.670227 547.330872,414.163086 553.272766,408.372284 
	C553.550415,407.948547 553.828003,407.524811 554.702454,406.935730 
	C554.725647,406.670776 554.748779,406.405853 554.771973,406.140900 
	C554.373779,406.284515 553.975525,406.428131 553.014587,406.682983 
M761.647888,499.933228 
	C765.437134,512.166809 769.186951,524.412964 773.078552,536.613892 
	C773.455444,537.795471 774.679321,539.559875 775.562622,539.591614 
	C782.445435,539.839294 789.341125,539.728577 796.954529,539.728577 
	C788.971558,532.625305 781.295715,526.085510 774.020996,519.126343 
	C772.103943,517.292542 770.366516,514.172607 770.343628,511.627075 
	C770.116150,486.368195 770.277344,461.105896 770.305115,435.844574 
	C770.318420,423.698761 770.166687,411.551208 770.342041,399.408081 
	C770.390564,396.048553 769.279541,394.451691 765.279968,393.979828 
	C751.985535,390.110596 738.691162,386.241333 724.704529,382.170624 
	C725.216797,384.237640 725.400146,385.197113 725.692017,386.122406 
	C731.234741,403.698395 736.762146,421.279297 742.350891,438.840698 
	C748.750427,458.950165 755.206726,479.041565 761.647888,499.933228 
M484.937408,309.882080 
	C478.208527,317.270813 471.482727,324.662354 464.750244,332.047791 
	C431.538574,368.480469 396.988220,403.726440 366.675323,442.728516 
	C363.021423,447.429810 359.291077,452.071686 354.776520,457.776947 
	C356.872711,457.212280 357.504730,457.096313 358.097260,456.874695 
	C387.531067,445.865234 416.975525,434.883698 446.352570,423.724670 
	C447.883942,423.142975 449.411926,421.241943 449.974976,419.619720 
	C457.444305,398.099396 464.853973,376.556732 472.040588,354.940491 
	C476.972717,340.105469 481.534668,325.147400 486.742523,309.869263 
	C486.812012,309.326996 486.881500,308.784729 487.039185,307.554321 
	C486.182098,308.548248 485.801819,308.989197 484.937408,309.882080 
M456.313568,509.027008 
	C456.417480,506.897308 456.205811,504.695312 456.674500,502.649170 
	C461.018799,483.683197 465.684631,464.787872 469.760223,445.765564 
	C470.743134,441.177765 472.745667,438.443939 476.715363,436.326447 
	C499.321198,424.268250 521.845947,412.058167 544.404358,399.910950 
	C552.100098,395.766968 559.813477,391.655670 568.114014,387.210693 
	C546.238281,356.074768 524.721375,325.449463 502.675293,294.071045 
	C502.040863,296.064972 501.852753,296.700500 501.637360,297.326691 
	C483.129761,351.135651 464.617065,404.942841 446.132874,458.759827 
	C445.771118,459.812988 445.410278,461.044922 445.610077,462.085785 
	C448.677917,478.068390 451.839142,494.033081 454.918762,510.843872 
	C456.336029,518.474854 457.753296,526.105835 459.245056,534.137939 
	C466.675629,534.137939 473.819611,534.137939 479.015961,534.137939 
	C472.101013,526.643066 464.351288,518.243408 456.313568,509.027008 
M628.965820,511.948151 
	C628.613708,512.056458 628.261536,512.164795 627.909424,512.273132 
	C628.181396,512.606689 628.453369,512.940308 628.889771,513.941406 
	C669.004395,577.029907 709.119080,640.118469 749.345032,703.382141 
	C763.983215,689.464050 778.804321,675.600769 793.318359,661.423157 
	C797.322083,657.512268 800.614014,657.334412 805.100647,660.342102 
	C811.228271,664.449951 817.702698,668.040527 824.431885,672.096008 
	C826.346863,662.996643 828.233337,654.749878 829.691833,646.428101 
	C829.948242,644.965332 828.876709,642.496460 827.633362,641.661438 
	C811.610474,630.900879 795.460266,620.329224 779.312012,609.756104 
	C753.003723,592.530579 726.706421,575.288025 700.342102,558.148560 
	C676.771484,542.825256 653.116638,527.631531 628.965820,511.948151 
M789.992859,146.204529 
	C789.743652,146.206039 789.494446,146.207550 789.245239,146.209076 
	C789.333130,146.624084 789.420959,147.039093 789.482361,148.279785 
	C789.786865,150.422470 790.016785,152.578873 790.407837,154.705643 
	C793.116455,169.438202 795.771912,184.181534 798.641968,198.882843 
	C799.521240,203.386856 798.950684,206.838379 794.962585,209.791336 
	C790.966553,212.750137 787.610229,216.555984 783.751099,219.719193 
	C753.995667,244.108490 728.545044,272.675110 703.873901,301.990509 
	C702.778137,303.292603 701.761597,305.659668 702.186157,307.092773 
	C708.225281,327.476532 714.483582,347.795990 720.838684,368.084106 
	C721.239197,369.362488 722.696899,370.853302 723.965759,371.233154 
	C739.108826,375.766663 754.320068,380.072052 769.484558,384.535217 
	C772.035217,385.285889 773.639587,385.002380 775.278625,382.573151 
	C803.201172,341.188995 831.398438,299.988403 859.017029,258.403259 
	C862.603882,253.002548 863.188232,245.505615 859.605347,239.181046 
	C851.579163,225.013397 843.071960,211.118683 835.012207,196.969559 
	C829.242249,186.840210 822.696594,177.486572 813.880615,169.653763 
	C805.688538,162.375290 798.120422,154.394577 789.992859,146.204529 
M403.939240,383.077850 
	C405.241943,381.792419 406.612762,380.568542 407.837341,379.212555 
	C437.422974,346.452972 466.966919,313.655609 496.640869,280.976288 
	C498.168274,279.294189 500.679688,277.885437 502.910767,277.556915 
	C530.105774,273.552673 557.304382,269.546417 584.560425,265.987976 
	C634.281189,259.496643 684.044434,253.330872 733.775024,246.914017 
	C736.264771,246.592758 739.118225,245.764679 740.948730,244.184052 
	C756.202332,231.012848 771.301941,217.661118 786.284851,204.182526 
	C787.551147,203.043457 788.428406,200.447052 788.135559,198.762512 
	C785.882263,185.800537 783.385803,172.877563 780.683289,160.001572 
	C780.384216,158.576477 778.474060,156.687912 777.046021,156.418259 
	C738.335144,149.108643 699.543701,148.815506 660.768433,155.845154 
	C618.690979,163.473526 579.600647,178.918137 543.170898,201.249741 
	C499.222839,228.190094 463.415649,263.289764 436.489227,307.335602 
	C422.028748,330.989838 410.544067,355.987732 402.162903,383.027130 
	C402.219757,383.317902 402.276642,383.608643 402.333496,383.899445 
	C402.656891,383.700470 402.980255,383.501526 403.939240,383.077850 
M650.226074,710.340454 
	C646.078979,703.897095 641.922852,697.459534 637.786987,691.009033 
	C631.666931,681.464050 631.724426,681.673096 620.768555,684.313782 
	C589.231140,691.915283 557.664429,699.398499 526.045227,706.649475 
	C524.047302,707.107544 520.645447,705.830872 519.409485,704.208740 
	C517.496460,701.697937 519.549072,699.389160 521.953674,697.668945 
	C553.223389,675.298401 583.952881,652.143127 617.129272,632.546082 
	C618.459534,631.760254 619.622131,629.102417 619.405090,627.516235 
	C613.218323,582.300781 606.806396,537.116150 600.621948,491.900391 
	C600.336792,489.815552 601.181396,486.493774 602.653809,485.551575 
	C604.164001,484.585205 607.574280,485.092133 609.329468,486.227386 
	C638.812012,505.296570 668.174622,524.551453 697.545715,543.792664 
	C744.174561,574.339539 790.780334,604.921631 837.432983,635.432068 
	C840.508240,637.443237 841.513794,639.710754 840.672729,643.384888 
	C838.372681,653.432190 836.323608,663.540100 834.390625,673.665100 
	C834.109741,675.136475 834.472534,677.621460 835.455688,678.292847 
	C840.341187,681.628845 845.534180,684.514648 850.692993,687.603333 
	C851.552673,686.552246 852.096375,685.943115 852.579285,685.289185 
	C891.559570,632.514587 930.537109,579.737854 969.504822,526.953918 
	C971.458496,524.307495 973.480408,521.564209 977.231384,523.665344 
	C980.888489,525.713989 979.854492,528.794250 978.636902,531.948181 
	C961.752747,575.683533 944.927124,619.441467 928.066956,663.186096 
	C924.990173,671.168884 921.822693,679.116760 918.378174,687.893311 
	C927.135315,685.037109 934.920654,682.772583 942.484314,679.920349 
	C946.550354,678.387085 949.213318,679.221497 952.245056,682.137329 
	C958.789612,688.431580 965.714478,694.330383 972.474731,700.382935 
	C1109.697266,547.421814 1077.428589,320.989410 921.295227,211.238449 
	C908.178345,223.468292 895.003723,235.707886 881.911743,248.035263 
	C880.757263,249.122253 879.988647,250.710632 879.299683,252.186981 
	C857.020569,299.927765 834.762817,347.678589 812.562805,395.456238 
	C811.754456,397.195953 811.188599,399.209961 811.134399,401.113861 
	C810.476135,424.265594 810.002014,447.422638 809.288757,470.572449 
	C809.186401,473.894104 810.138733,476.125977 812.607056,478.307037 
	C822.342957,486.909912 831.996033,495.613068 841.439819,504.533112 
	C842.851868,505.866913 844.005249,508.934845 843.420532,510.511536 
	C842.836365,512.086670 839.940735,513.695251 838.022522,513.739746 
	C826.030884,514.017456 814.020752,514.084717 802.038330,513.640869 
	C799.902832,513.561768 796.794189,511.194946 795.977600,509.149017 
	C792.898254,501.433868 790.663147,493.386322 787.947693,485.519897 
	C785.975464,479.806305 783.744507,474.182068 781.628845,468.517975 
	C781.155823,468.613312 780.682800,468.708679 780.209778,468.804016 
	C780.209778,470.395508 780.211975,471.986969 780.209412,473.578461 
	C780.191223,484.743530 780.008484,495.912689 780.287903,507.070312 
	C780.345398,509.365051 781.554138,512.226135 783.211121,513.787048 
	C792.546814,522.581543 802.280701,530.953186 811.621704,539.742310 
	C813.283569,541.305969 815.135559,544.932617 814.416565,546.224487 
	C813.368835,548.106750 810.091614,549.683350 807.726379,549.738647 
	C796.070251,550.011414 784.399902,549.600891 772.737732,549.726196 
	C767.950195,549.777527 765.731140,547.903442 764.302490,543.260071 
	C750.992676,500.001709 737.423340,456.823334 723.994568,413.601440 
	C723.196167,411.031799 721.994629,410.012482 719.160156,409.783875 
	C707.541504,408.846710 695.945801,407.607330 684.352539,406.376526 
	C650.230591,402.753998 616.117371,399.047974 581.984070,395.537079 
	C580.351990,395.369171 578.085693,396.293854 576.916321,397.492065 
	C566.444641,408.221527 556.119629,419.095306 545.850769,430.019928 
	C544.562683,431.390198 543.358337,433.190460 542.953430,434.981079 
	C540.752502,444.712616 538.660706,454.476440 536.925964,464.298828 
	C536.607483,466.101898 537.526489,468.834442 538.859253,470.103821 
	C548.146973,478.949860 557.794983,487.418152 567.055237,496.291718 
	C568.533752,497.708466 569.740967,500.995453 569.085144,502.610352 
	C568.416565,504.256683 565.317627,505.795013 563.244385,505.847076 
	C551.253418,506.148254 539.250732,505.943176 527.252869,506.029327 
	C523.645752,506.055237 521.732666,504.421814 520.926880,501.007416 
	C519.283447,494.043488 517.569885,487.095490 515.817688,480.157959 
	C511.913757,464.701813 507.968292,449.256134 503.856201,433.084198 
	C496.075226,437.428558 488.792511,441.361603 481.688080,445.593933 
	C480.520844,446.289276 479.798096,448.219574 479.443329,449.715088 
	C475.370239,466.884125 471.457611,484.091278 467.368500,501.256409 
	C466.672882,504.176483 467.285278,506.162872 469.460602,508.272034 
	C478.432312,516.970947 487.331726,525.752380 495.980255,534.769592 
	C497.542664,536.398560 499.044189,539.841614 498.325195,541.428040 
	C497.546295,543.146545 494.147919,544.541199 491.871216,544.572510 
	C480.044952,544.735291 468.212341,544.343018 456.381439,544.309021 
	C452.385651,544.297546 450.471375,542.815674 449.717590,538.681396 
	C445.629486,516.258545 441.548126,493.827118 436.872742,471.522644 
	C435.114044,463.132660 435.594696,455.546082 439.434845,447.929596 
	C441.315796,444.198975 442.464539,440.099152 444.181976,435.535889 
	C425.985046,442.416931 408.582031,448.932037 391.274841,455.692535 
	C390.140076,456.135803 389.064423,458.472504 389.098297,459.901520 
	C389.540192,478.533417 388.766022,497.335205 391.030457,515.758362 
	C400.603760,593.644897 433.780365,660.497681 489.490356,715.507446 
	C542.873108,768.219238 607.458008,798.560669 682.235107,806.604065 
	C691.755798,807.628174 701.352844,807.942871 710.914490,808.586182 
	C711.206360,808.132507 711.498230,807.678833 711.790161,807.225159 
	C691.402954,775.129517 671.015808,743.033875 650.226074,710.340454 
M665.975098,393.698151 
	C683.515503,395.480713 701.055908,397.263275 718.658081,399.052124 
	C716.522156,390.774811 714.776794,382.850739 712.423828,375.111389 
	C705.510376,352.371948 698.411621,329.688141 691.229431,307.031982 
	C690.252441,303.950195 690.600037,301.674835 692.733093,299.308167 
	C697.752075,293.739624 702.647644,288.058807 707.544434,282.381378 
	C714.238037,274.620697 720.886414,266.820984 727.554138,259.038025 
	C727.356323,258.637451 727.158569,258.236877 726.960754,257.836304 
	C654.912659,267.486877 582.864624,277.137451 510.600342,286.816986 
	C510.931946,287.795502 510.988159,288.311035 511.249329,288.682343 
	C533.090271,319.732056 554.917725,350.791412 576.893127,381.745758 
	C577.944519,383.226746 580.237061,384.447479 582.078613,384.653442 
	C609.729797,387.745728 637.402222,390.646973 665.975098,393.698151 
M961.197632,704.301270 
	C957.370728,700.836792 953.339661,697.567627 949.780823,693.846680 
	C946.868225,690.801392 944.211548,690.404175 940.165710,691.755127 
	C890.809998,708.235718 841.380371,724.495056 791.974854,740.826721 
	C789.669617,741.588745 787.410767,742.491089 784.934753,743.399902 
	C878.100586,761.221375 970.851379,778.963440 1064.646118,796.905151 
	C1029.896606,765.803406 995.807251,735.292419 961.197632,704.301270 
M715.122742,669.434326 
	C682.489807,617.258972 650.761292,564.498718 615.176331,514.195251 
	C614.819336,515.254089 614.866821,516.076477 614.978333,516.890076 
	C620.107422,554.326172 625.211426,591.765869 630.475525,629.182983 
	C630.715271,630.887207 632.083984,632.770691 633.465820,633.926208 
	C659.639954,655.812805 685.893311,677.604675 712.135071,699.410400 
	C719.407715,705.453613 726.696350,711.477783 733.788757,717.354248 
	C736.221313,715.006958 738.422119,712.883240 740.723877,710.662170 
	C732.339417,697.141968 723.934509,683.588806 715.122742,669.434326 
M670.400146,678.065552 
	C668.356384,676.797241 666.118774,674.222656 664.303040,674.492065 
	C657.299133,675.531006 650.429993,677.478638 643.072144,679.189575 
	C674.610779,728.997925 705.848694,778.331299 737.551147,828.398376 
	C741.797119,802.072510 745.795837,776.794373 750.021423,751.554138 
	C750.734009,747.297546 749.698486,744.671692 746.289673,741.840759 
	C721.053284,720.883118 696.031067,699.667542 670.400146,678.065552 
M869.135925,770.302063 
	C835.776917,764.104370 802.417908,757.906677 768.398499,751.586304 
	C769.034302,752.887634 769.234985,753.504700 769.595764,754.006775 
	C779.317078,767.532959 788.982361,781.101074 798.898926,794.482971 
	C799.919800,795.860657 802.446899,796.767883 804.291565,796.795715 
	C866.278992,797.731140 928.268188,798.550293 990.257812,799.337036 
	C1000.126404,799.462280 1009.997925,799.354553 1019.868164,799.354553 
	C1019.898987,799.193542 1019.929810,799.032532 1019.960632,798.871521 
	C969.965393,789.410645 919.970093,779.949829 869.135925,770.302063 
M887.459717,208.982681 
	C899.849609,185.625824 911.995178,162.133789 924.790894,139.001419 
	C928.254211,132.740311 926.812561,127.201660 926.092346,120.643463 
	C896.728271,141.902863 867.981873,162.714981 839.079468,183.640121 
	C849.983826,202.357788 860.631226,220.634460 871.740601,239.704086 
	C877.172119,229.107300 882.156616,219.382614 887.459717,208.982681 
M907.684998,686.146790 
	C923.720764,645.650208 939.756531,605.153625 955.792297,564.657043 
	C955.107422,564.288452 954.422485,563.919800 953.737549,563.551147 
	C922.325500,606.410950 890.913391,649.270752 859.248291,692.475891 
	C864.223755,695.519897 868.349426,698.315979 872.744385,700.592163 
	C874.387451,701.443054 876.836426,701.687561 878.611633,701.166077 
	C885.621887,699.106750 892.431946,696.345337 899.473938,694.421387 
	C903.745361,693.254333 906.620300,691.351501 907.684998,686.146790 
M811.683716,490.815918 
	C809.547607,488.959961 807.562439,486.884003 805.243774,485.294220 
	C800.536255,482.066437 799.024658,477.998901 799.255066,472.172729 
	C800.195618,448.387665 800.475708,424.577087 801.263733,400.784668 
	C801.379944,397.275452 802.390564,393.566925 803.882080,390.367737 
	C817.774963,360.566742 831.868347,330.859222 845.877991,301.112549 
	C846.423889,299.953522 846.711487,298.672913 847.119446,297.448944 
	C845.845398,297.319275 845.629456,297.767517 845.350708,298.172607 
	C824.035583,329.143616 802.696960,360.098480 781.458191,391.121796 
	C780.517822,392.495392 780.109253,394.488525 780.093689,396.198944 
	C779.978821,408.851624 780.013367,421.505829 780.039185,434.159454 
	C780.042542,435.812317 779.884216,437.606445 780.440796,439.096008 
	C788.179138,459.804260 796.002014,480.481323 803.928894,501.118042 
	C804.346558,502.205261 805.850769,503.566650 806.895691,503.607391 
	C812.963440,503.844025 819.045044,503.723114 825.975281,503.723114 
	C820.996948,499.205597 816.617188,495.231262 811.683716,490.815918 
M786.276855,697.874573 
	C779.555237,711.124573 772.833679,724.374573 765.711487,738.414185 
	C798.400696,727.719482 830.196716,717.316956 863.036987,706.572815 
	C841.731323,694.102966 821.298401,682.143982 800.398193,669.911438 
	C795.607666,679.445496 791.137695,688.341675 786.276855,697.874573 
M767.139771,768.368835 
	C764.758240,765.260071 762.376770,762.151306 759.306335,758.143188 
	C755.277283,783.322327 751.446472,807.262573 747.410217,832.486328 
	C762.724670,821.738037 776.920776,811.774536 791.266235,801.706299 
	C783.152161,790.480042 775.365723,779.707214 767.139771,768.368835 
M629.670959,655.144958 
	C605.556152,666.072632 581.441345,677.000366 557.326538,687.928101 
	C557.443665,688.222229 557.560730,688.516357 557.677795,688.810486 
	C590.114075,681.240662 622.550293,673.670837 655.725159,665.928589 
	C651.841614,662.584290 648.256042,660.073303 645.399170,656.905090 
	C640.793579,651.797546 636.046082,650.744385 629.670959,655.144958 
M934.703064,176.265427 
	C926.072083,181.578796 917.411804,186.845886 908.844116,192.259384 
	C907.666260,193.003601 906.731201,194.358978 906.051636,195.628357 
	C901.070007,204.933365 896.182068,214.288544 891.264587,223.627899 
	C893.154907,223.288040 894.508911,222.308716 895.751404,221.203964 
	C908.180420,210.152817 920.362488,198.806992 933.127197,188.159225 
	C937.785339,184.273560 939.823730,180.415588 938.319458,174.263840 
	C937.267212,174.853271 936.306763,175.391296 934.703064,176.265427 
M772.772827,695.270203 
	C763.102051,705.450623 753.431213,715.631042 743.606140,725.973816 
	C747.100769,728.957275 751.194519,732.452148 755.583496,736.199097 
	C763.544067,720.489685 771.192322,705.396545 778.840576,690.303467 
	C778.523254,690.062073 778.205933,689.820740 777.888672,689.579346 
	C776.350952,691.309082 774.813232,693.038818 772.772827,695.270203 
M840.932129,162.677704 
	C836.877441,158.167389 832.822693,153.657074 828.768005,149.146759 
	C828.204590,149.584946 827.641174,150.023132 827.077698,150.461319 
	C829.622986,158.443756 824.385803,168.451157 834.167236,174.753082 
	C837.600525,172.196075 841.112122,169.580780 844.718933,166.894501 
	C843.419250,165.415237 842.438782,164.299255 840.932129,162.677704 
M616.302002,644.815552 
	C608.622437,649.672119 600.942810,654.528687 593.263245,659.385315 
	C593.463806,659.767273 593.664368,660.149231 593.864929,660.531189 
	C605.660522,655.207581 617.456116,649.884033 629.745178,644.337708 
	C627.827148,642.628601 626.383118,641.341736 624.902954,640.022766 
	C622.110046,641.552429 619.507202,642.977966 616.302002,644.815552 
z"/>
<path fill="#F6F6F7" opacity="1.000000" stroke="none" 
	d="
M145.519699,896.696472 
	C144.787689,894.649109 144.224701,892.943359 143.504120,890.760071 
	C150.101868,890.760071 156.326492,890.760071 162.923218,890.760071 
	C170.812729,913.292847 178.809769,936.132690 187.236511,960.199829 
	C193.080765,945.418152 198.269470,931.800049 203.888428,918.361816 
	C205.750656,913.908142 206.014282,910.081238 203.948807,905.636658 
	C201.803360,901.019958 200.480362,896.021118 198.485321,890.292419 
	C204.882553,890.292419 210.650757,890.054932 216.369492,890.481140 
	C217.598816,890.572815 219.138229,892.887390 219.708252,894.474731 
	C227.187286,915.302490 234.517456,936.183716 241.887527,957.050598 
	C242.084778,957.609131 242.310120,958.157654 242.887344,959.662170 
	C243.836014,957.373657 244.480682,955.960449 245.015518,954.506897 
	C252.416168,934.394775 259.852844,914.295593 267.131409,894.139343 
	C268.127441,891.381165 269.386536,890.141418 272.453217,890.308594 
	C277.251862,890.570190 282.075256,890.377991 287.675323,890.377991 
	C284.939423,897.572510 282.406036,904.319763 279.810883,911.043213 
	C270.779022,934.442932 261.682007,957.817749 252.734604,981.249756 
	C251.584564,984.261475 250.255066,985.639343 246.694000,985.576904 
	C233.807907,985.350830 233.789352,985.524841 229.285950,973.320740 
	C224.640610,960.731873 220.029846,948.130371 214.896652,934.153015 
	C210.382095,945.553833 206.378174,955.658630 202.379639,965.765625 
	C200.174835,971.338623 198.153961,976.995422 195.655594,982.433228 
	C195.036377,983.780884 192.921921,985.193665 191.428314,985.269653 
	C178.422211,985.931580 178.260590,985.901306 173.773865,973.782654 
	C164.315903,948.236755 155.039581,922.623596 145.519699,896.696472 
z"/>
<path fill="#F6F6F6" opacity="1.000000" stroke="none" 
	d="
M900.235107,953.793945 
	C907.265625,964.292175 914.310303,974.365601 921.977722,985.329529 
	C914.993408,985.329529 908.915344,985.466797 902.854248,985.207520 
	C901.714722,985.158813 900.393005,983.710266 899.579895,982.597412 
	C893.885681,974.804138 888.424622,966.836792 882.582031,959.158691 
	C881.411987,957.621094 878.959534,956.312012 877.038513,956.225464 
	C869.581787,955.889221 862.100952,956.088562 854.119446,956.088562 
	C854.119446,965.874939 854.119446,975.269775 854.119446,985.083252 
	C848.057739,985.083252 842.497986,985.083252 836.438843,985.083252 
	C836.438843,975.508728 836.438843,965.950867 836.438843,955.891907 
	C831.735046,955.891907 827.497070,955.891907 822.989624,955.891907 
	C822.989624,950.632812 822.989624,945.879517 822.989624,940.728760 
	C827.200500,940.728760 831.305542,940.728760 835.892578,940.728760 
	C835.892578,923.967896 835.892578,907.588806 835.892578,890.864868 
	C837.588806,890.664246 838.848511,890.388672 840.108887,890.385498 
	C855.592346,890.345947 871.077209,890.216003 886.559021,890.372192 
	C902.931091,890.537354 915.706848,899.088684 920.051575,912.428894 
	C925.617249,929.517517 917.938782,945.392273 900.235107,953.793945 
M889.519226,906.664978 
	C877.757751,906.664978 865.996277,906.664978 854.148926,906.664978 
	C854.148926,917.966003 854.148926,929.044189 854.148926,940.332581 
	C865.365845,940.332581 876.348572,940.831360 887.263184,940.182983 
	C896.904968,939.610291 902.621582,933.729919 903.399475,925.423645 
	C904.254761,916.290955 899.823853,909.977661 889.519226,906.664978 
z"/>
<path fill="#F6F5F6" opacity="1.000000" stroke="none" 
	d="
M1027.610474,954.166992 
	C1030.788208,964.535461 1033.825073,974.529724 1037.142212,985.446533 
	C1031.505005,985.446533 1026.423462,985.630432 1021.375122,985.301819 
	C1020.276123,985.230347 1018.767151,983.498047 1018.352478,982.233704 
	C1016.437988,976.396179 1014.684265,970.493347 1013.200867,964.532410 
	C1012.453918,961.530945 1010.982300,960.726440 1008.002502,960.761719 
	C994.517212,960.921143 981.028076,960.917664 967.542603,960.770203 
	C964.713867,960.739319 963.431274,961.592957 962.639282,964.336487 
	C960.935791,970.237122 958.727661,975.990906 956.966370,981.876648 
	C956.194092,984.457458 955.182800,985.728455 952.181519,985.520386 
	C947.586731,985.201660 942.953552,985.436707 937.721619,985.436707 
	C946.615234,958.867859 955.283997,932.971008 964.173828,906.413452 
	C958.400391,906.413452 953.179626,906.413452 947.576782,906.413452 
	C947.576782,900.984436 947.576782,896.089539 947.576782,890.757324 
	C974.198608,890.757324 1000.925659,890.757324 1027.942627,890.757324 
	C1027.942627,895.540588 1027.942627,900.481445 1027.942627,905.995911 
	C1023.461426,905.995911 1018.907715,905.995911 1013.403381,905.995911 
	C1018.244019,922.444397 1022.856750,938.118530 1027.610474,954.166992 
M999.041321,916.450317 
	C998.329102,913.892334 997.706604,911.304077 996.860413,908.791199 
	C996.522827,907.788879 995.720581,906.188721 995.079895,906.164185 
	C990.605103,905.992615 985.941772,905.480469 981.721436,906.565674 
	C980.078308,906.988159 979.199219,911.184753 978.359253,913.787170 
	C975.014709,924.149963 971.822815,934.561951 968.472900,945.280396 
	C981.676636,945.280396 994.328064,945.280396 1007.660278,945.280396 
	C1004.730103,935.560364 1001.968689,926.400269 999.041321,916.450317 
z"/>
<path fill="#F7F7F7" opacity="1.000000" stroke="none" 
	d="
M372.547913,893.451355 
	C393.656860,903.934998 404.255768,924.635498 400.110291,946.798401 
	C395.992767,968.812012 377.911957,985.103821 355.155548,987.051819 
	C334.966309,988.780029 317.180847,983.523315 304.918365,966.564392 
	C286.212311,940.694153 297.640015,903.795044 327.448639,892.454163 
	C342.411316,886.761475 357.404022,886.905273 372.547913,893.451355 
M366.030182,909.282043 
	C359.450134,907.834900 352.868500,905.176941 346.290405,905.185608 
	C331.311218,905.205200 319.129028,915.054016 315.531708,928.463562 
	C311.484192,943.551453 316.676361,958.063232 328.836487,965.649231 
	C345.250763,975.889221 367.636475,971.242432 377.413391,955.565613 
	C387.115204,940.009216 382.357147,919.700562 366.030182,909.282043 
z"/>
<path fill="#F8F8F8" opacity="1.000000" stroke="none" 
	d="
M1213.999512,985.399536 
	C1204.045410,985.399048 1194.591187,985.399048 1184.689819,985.399048 
	C1184.689819,972.754517 1184.689819,960.489563 1184.689819,947.563354 
	C1179.870728,947.563354 1175.479858,947.563354 1170.770752,947.563354 
	C1170.770752,942.017822 1170.770752,937.130066 1170.770752,931.762695 
	C1175.225098,931.762695 1179.647339,931.762695 1184.460938,931.762695 
	C1184.460938,917.871582 1184.460938,904.443970 1184.460938,890.671021 
	C1210.091675,890.671021 1235.312744,890.671021 1260.848511,890.671021 
	C1260.848511,895.699280 1260.848511,900.607117 1260.848511,906.018188 
	C1241.412109,906.018188 1222.009033,906.018188 1202.270508,906.018188 
	C1202.270508,914.730652 1202.270508,922.951965 1202.270508,931.681213 
	C1219.220215,931.681213 1236.139526,931.681213 1253.355713,931.681213 
	C1253.355713,936.956238 1253.355713,941.732239 1253.355713,947.114258 
	C1236.429443,947.114258 1219.522217,947.114258 1202.281738,947.114258 
	C1202.281738,954.929443 1202.281738,962.144409 1202.281738,969.742432 
	C1221.781006,969.742432 1241.053711,969.742432 1260.724609,969.742432 
	C1260.724609,975.003784 1260.724609,979.903625 1260.724609,985.399963 
	C1245.380737,985.399963 1229.940186,985.399963 1213.999512,985.399536 
z"/>
<path fill="#F5F5F5" opacity="1.000000" stroke="none" 
	d="
M1104.414795,934.541382 
	C1094.744141,927.775085 1085.353638,921.233093 1075.139160,914.117004 
	C1075.139160,938.311096 1075.139160,961.509766 1075.139160,985.044678 
	C1069.204956,985.044678 1063.786865,985.044678 1058.000244,985.044678 
	C1058.000244,953.707642 1058.000244,922.316467 1058.000244,890.582397 
	C1064.765503,889.968628 1070.833984,890.023132 1076.996216,894.734192 
	C1093.363892,907.247192 1110.372925,918.921204 1127.942627,931.513550 
	C1127.942627,917.377197 1127.942627,904.195679 1127.942627,890.697205 
	C1134.053101,890.697205 1139.627686,890.697205 1145.505371,890.697205 
	C1145.505371,922.165894 1145.505371,953.417664 1145.505371,985.061035 
	C1139.802246,985.061035 1134.239014,985.061035 1128.149048,985.061035 
	C1128.149048,974.987793 1128.006836,965.034912 1128.230225,955.090149 
	C1128.303589,951.831543 1127.203491,950.017334 1124.491943,948.286194 
	C1117.759766,943.987976 1111.277588,939.298157 1104.414795,934.541382 
z"/>
<path fill="#F6F6F6" opacity="1.000000" stroke="none" 
	d="
M655.942383,922.967041 
	C668.651672,943.693420 681.194763,964.096130 694.212769,985.271301 
	C687.601196,985.271301 681.697571,985.382996 675.806519,985.161255 
	C674.826538,985.124390 673.671448,983.790283 672.993713,982.787720 
	C670.967590,979.790527 669.138245,976.660400 666.906372,973.056274 
	C658.044556,983.259521 647.552063,988.922974 634.139343,986.442871 
	C624.835999,984.722717 616.858826,980.525940 611.596375,972.193909 
	C599.622253,953.235413 607.639404,933.490784 633.278687,919.684692 
	C629.603821,913.591675 625.896301,907.537598 622.283081,901.427917 
	C618.480530,894.998169 621.018066,890.386841 628.386353,890.367065 
	C643.859436,890.325562 659.332703,890.354492 675.210205,890.354492 
	C675.210205,895.597717 675.210205,900.484009 675.210205,906.056458 
	C665.703613,906.056458 656.156311,906.056458 645.622375,906.056458 
	C649.385681,912.204041 652.580872,917.423645 655.942383,922.967041 
M646.913940,940.586243 
	C645.482300,938.371399 644.050659,936.156616 642.678040,934.033142 
	C630.976562,937.355896 624.345215,944.576538 624.191589,953.883911 
	C624.076904,960.836243 629.020020,967.648682 635.729736,969.785461 
	C643.830994,972.365356 652.131531,968.608337 658.645203,959.307556 
	C654.885437,953.317688 651.086182,947.264832 646.913940,940.586243 
z"/>
<path fill="#F6F6F7" opacity="1.000000" stroke="none" 
	d="
M493.628906,939.046021 
	C493.626678,936.462402 493.626678,934.330933 493.626678,931.833496 
	C498.064026,931.833496 502.170563,931.833496 506.661560,931.833496 
	C506.661560,918.053772 506.661560,904.644409 506.661560,890.780151 
	C529.921448,890.780151 552.793884,890.780151 576.032837,890.780151 
	C576.032837,895.641113 576.032837,900.695007 576.032837,906.217407 
	C558.988342,906.217407 542.072205,906.217407 524.840454,906.217407 
	C524.840454,914.908997 524.840454,923.138184 524.840454,931.733154 
	C539.985657,931.733154 554.909912,931.733154 570.101624,931.733154 
	C570.101624,936.992920 570.101624,941.889832 570.101624,947.352295 
	C554.973328,947.352295 540.072388,947.352295 524.727905,947.352295 
	C524.727905,960.169250 524.727905,972.433716 524.727905,985.075195 
	C518.722290,985.075195 513.156982,985.075195 506.968445,985.075195 
	C506.968445,972.691589 506.968445,960.311768 506.968445,947.402344 
	C502.277679,947.402344 498.193481,947.402344 493.631165,947.402344 
	C493.631165,944.410828 493.631165,941.954468 493.628906,939.046021 
z"/>
<path fill="#F6F6F7" opacity="1.000000" stroke="none" 
	d="
M728.130005,952.794067 
	C720.284485,925.323669 735.076599,898.665588 762.136780,890.963928 
	C779.427856,886.042664 800.205139,888.899658 812.623413,898.047485 
	C810.452820,902.584473 808.259644,907.168579 806.224609,911.422180 
	C799.626160,909.341797 793.611450,906.674744 787.326172,905.619568 
	C772.978088,903.210876 759.860901,906.152161 750.728394,918.425171 
	C742.807434,929.069946 742.108398,940.962036 747.943298,952.859436 
	C753.593811,964.380493 763.681763,969.673035 776.005676,970.840088 
	C786.338684,971.818542 796.166016,969.487122 805.919250,964.430176 
	C808.075867,969.082336 810.127747,973.508545 812.154297,977.880127 
	C788.267273,994.889099 740.848999,990.470276 728.130005,952.794067 
z"/>
<path fill="#F7F7F7" opacity="1.000000" stroke="none" 
	d="
M483.635498,969.712891 
	C484.288818,970.480957 485.472260,971.225769 485.507080,972.020813 
	C485.694214,976.292542 485.595581,980.576782 485.595581,985.463623 
	C464.864838,985.463623 444.513397,985.463623 423.639893,985.050903 
	C423.037567,982.758667 422.957336,980.879028 422.965240,978.556458 
	C422.996918,975.409241 422.940460,972.705078 422.970703,969.547119 
	C422.997437,965.395386 422.937500,961.697327 422.963165,957.561707 
	C422.989746,954.749634 422.930725,952.375183 422.956329,949.538818 
	C423.040955,929.648193 423.040955,910.219482 423.040955,890.347412 
	C428.431366,890.347412 433.396851,890.212341 438.342560,890.464600 
	C439.299866,890.513428 440.179932,892.075439 440.999329,893.307800 
	C440.979065,896.386353 441.055084,899.096619 441.037811,902.215332 
	C441.004578,918.079224 441.064636,933.534607 441.017517,949.418823 
	C440.979492,951.901550 441.048615,953.955444 441.024292,956.454590 
	C441.008179,959.929077 441.085571,962.958313 441.063202,966.383911 
	C441.261475,967.725098 441.559509,968.669922 442.311951,969.723999 
	C445.556854,969.787781 448.347351,969.742432 451.586578,969.798828 
	C462.568726,969.838074 473.102112,969.775513 483.635498,969.712891 
z"/>
<path fill="#010101" opacity="1.000000" stroke="none" 
	d="
M441.095642,892.939453 
	C440.179932,892.075439 439.299866,890.513428 438.342560,890.464600 
	C433.396851,890.212341 428.431366,890.347412 423.040955,890.347412 
	C423.040955,910.219482 423.040955,929.648193 422.590027,949.635254 
	C420.638458,952.960876 419.546783,955.689270 422.877563,957.999329 
	C422.937500,961.697327 422.997437,965.395386 422.615570,969.622192 
	C418.846161,974.441833 419.025055,976.692383 422.877075,978.999451 
	C422.957336,980.879028 423.037567,982.758667 423.189362,985.031372 
	C425.112427,986.710876 426.963959,987.997314 429.309692,989.627136 
	C428.317108,993.270935 424.019928,992.762695 421.713898,991.631165 
	C419.233185,990.413940 416.405884,986.981201 416.278839,984.390198 
	C415.700104,972.584534 415.889069,960.733154 416.052246,948.901672 
	C416.197601,938.363220 416.863159,927.830627 416.930084,917.293091 
	C416.972137,910.673279 416.427826,904.042480 415.962219,897.429626 
	C415.711060,893.861694 416.905121,891.164917 420.064362,889.604492 
	C424.017212,887.652039 428.270752,884.205994 432.070282,884.592529 
	C436.534271,885.046509 440.650177,888.921936 444.445007,891.676941 
	C443.013824,892.340088 442.054718,892.639771 441.095642,892.939453 
z"/>
<path fill="#101010" opacity="1.000000" stroke="none" 
	d="
M440.999329,893.307739 
	C442.054718,892.639771 443.013824,892.340088 444.482788,892.028748 
	C444.992828,892.457642 444.993011,892.898254 444.993896,894.113525 
	C444.995575,897.258850 444.996552,899.629456 444.997559,902.000000 
	C444.995941,922.041809 444.994324,942.083679 444.995972,962.914185 
	C445.341675,964.802795 445.684113,965.902588 445.773926,967.274475 
	C444.300018,968.235962 443.078796,968.925415 441.857544,969.614868 
	C441.559509,968.669922 441.261475,967.725098 441.435150,966.277954 
	C443.278687,962.388184 444.620178,959.003052 441.117767,956.009338 
	C441.048615,953.955444 440.979492,951.901550 441.401733,949.311829 
	C442.259277,948.091736 442.941895,947.408875 442.944977,946.723022 
	C443.007782,932.795166 443.032715,918.866638 442.912842,904.939575 
	C442.903839,903.890320 441.751801,902.850830 441.131104,901.806824 
	C441.055084,899.096619 440.979065,896.386353 440.999329,893.307739 
z"/>
<path fill="#101010" opacity="1.000000" stroke="none" 
	d="
M483.727631,969.262146 
	C473.102112,969.775513 462.568726,969.838074 451.472260,969.464478 
	C450.268829,968.352600 449.628479,967.676941 448.995605,966.753906 
	C449.003052,966.506592 449.017761,966.011841 449.017761,966.011841 
	C459.287933,966.011475 469.560364,965.908508 479.825531,966.134827 
	C481.175934,966.164612 482.489258,967.877808 483.727631,969.262146 
z"/>
<path fill="#010101" opacity="1.000000" stroke="none" 
	d="
M445.356384,901.935791 
	C444.996552,899.629456 444.995575,897.258850 444.996094,894.444153 
	C448.954926,896.196350 449.098206,897.768188 445.356384,901.935791 
z"/>
<path fill="#010101" opacity="1.000000" stroke="none" 
	d="
M448.723572,965.861816 
	C449.017761,966.011841 449.003052,966.506592 448.625305,966.753906 
	C447.507263,967.001587 446.766907,967.002014 446.026581,967.002441 
	C445.684113,965.902588 445.341675,964.802795 444.997772,963.351440 
	C446.140686,963.903931 447.285065,964.807861 448.723572,965.861816 
z"/>
<path fill="#010101" opacity="1.000000" stroke="none" 
	d="
M650.427368,710.639404 
	C671.015808,743.033875 691.402954,775.129517 711.790161,807.225159 
	C711.498230,807.678833 711.206360,808.132507 710.914490,808.586182 
	C701.352844,807.942871 691.755798,807.628174 682.235107,806.604065 
	C607.458008,798.560669 542.873108,768.219238 489.490356,715.507446 
	C433.780365,660.497681 400.603760,593.644897 391.030457,515.758362 
	C388.766022,497.335205 389.540192,478.533417 389.098297,459.901520 
	C389.064423,458.472504 390.140076,456.135803 391.274841,455.692535 
	C408.582031,448.932037 425.985046,442.416931 444.181976,435.535889 
	C442.464539,440.099152 441.315796,444.198975 439.434845,447.929596 
	C435.594696,455.546082 435.114044,463.132660 436.872742,471.522644 
	C441.548126,493.827118 445.629486,516.258545 449.717590,538.681396 
	C450.471375,542.815674 452.385651,544.297546 456.381439,544.309021 
	C468.212341,544.343018 480.044952,544.735291 491.871216,544.572510 
	C494.147919,544.541199 497.546295,543.146545 498.325195,541.428040 
	C499.044189,539.841614 497.542664,536.398560 495.980255,534.769592 
	C487.331726,525.752380 478.432312,516.970947 469.460602,508.272034 
	C467.285278,506.162872 466.672882,504.176483 467.368500,501.256409 
	C471.457611,484.091278 475.370239,466.884125 479.443329,449.715088 
	C479.798096,448.219574 480.520844,446.289276 481.688080,445.593933 
	C488.792511,441.361603 496.075226,437.428558 503.856201,433.084198 
	C507.968292,449.256134 511.913757,464.701813 515.817688,480.157959 
	C517.569885,487.095490 519.283447,494.043488 520.926880,501.007416 
	C521.732666,504.421814 523.645752,506.055237 527.252869,506.029327 
	C539.250732,505.943176 551.253418,506.148254 563.244385,505.847076 
	C565.317627,505.795013 568.416565,504.256683 569.085144,502.610352 
	C569.740967,500.995453 568.533752,497.708466 567.055237,496.291718 
	C557.794983,487.418152 548.146973,478.949860 538.859253,470.103821 
	C537.526489,468.834442 536.607483,466.101898 536.925964,464.298828 
	C538.660706,454.476440 540.752502,444.712616 542.953430,434.981079 
	C543.358337,433.190460 544.562683,431.390198 545.850769,430.019928 
	C556.119629,419.095306 566.444641,408.221527 576.916321,397.492065 
	C578.085693,396.293854 580.351990,395.369171 581.984070,395.537079 
	C616.117371,399.047974 650.230591,402.753998 684.352539,406.376526 
	C695.945801,407.607330 707.541504,408.846710 719.160156,409.783875 
	C721.994629,410.012482 723.196167,411.031799 723.994568,413.601440 
	C737.423340,456.823334 750.992676,500.001709 764.302490,543.260071 
	C765.731140,547.903442 767.950195,549.777527 772.737732,549.726196 
	C784.399902,549.600891 796.070251,550.011414 807.726379,549.738647 
	C810.091614,549.683350 813.368835,548.106750 814.416565,546.224487 
	C815.135559,544.932617 813.283569,541.305969 811.621704,539.742310 
	C802.280701,530.953186 792.546814,522.581543 783.211121,513.787048 
	C781.554138,512.226135 780.345398,509.365051 780.287903,507.070312 
	C780.008484,495.912689 780.191223,484.743530 780.209412,473.578461 
	C780.211975,471.986969 780.209778,470.395508 780.209778,468.804016 
	C780.682800,468.708679 781.155823,468.613312 781.628845,468.517975 
	C783.744507,474.182068 785.975464,479.806305 787.947693,485.519897 
	C790.663147,493.386322 792.898254,501.433868 795.977600,509.149017 
	C796.794189,511.194946 799.902832,513.561768 802.038330,513.640869 
	C814.020752,514.084717 826.030884,514.017456 838.022522,513.739746 
	C839.940735,513.695251 842.836365,512.086670 843.420532,510.511536 
	C844.005249,508.934845 842.851868,505.866913 841.439819,504.533112 
	C831.996033,495.613068 822.342957,486.909912 812.607056,478.307037 
	C810.138733,476.125977 809.186401,473.894104 809.288757,470.572449 
	C810.002014,447.422638 810.476135,424.265594 811.134399,401.113861 
	C811.188599,399.209961 811.754456,397.195953 812.562805,395.456238 
	C834.762817,347.678589 857.020569,299.927765 879.299683,252.186981 
	C879.988647,250.710632 880.757263,249.122253 881.911743,248.035263 
	C895.003723,235.707886 908.178345,223.468292 921.295227,211.238449 
	C1077.428589,320.989410 1109.697266,547.421814 972.474731,700.382935 
	C965.714478,694.330383 958.789612,688.431580 952.245056,682.137329 
	C949.213318,679.221497 946.550354,678.387085 942.484314,679.920349 
	C934.920654,682.772583 927.135315,685.037109 918.378174,687.893311 
	C921.822693,679.116760 924.990173,671.168884 928.066956,663.186096 
	C944.927124,619.441467 961.752747,575.683533 978.636902,531.948181 
	C979.854492,528.794250 980.888489,525.713989 977.231384,523.665344 
	C973.480408,521.564209 971.458496,524.307495 969.504822,526.953918 
	C930.537109,579.737854 891.559570,632.514587 852.579285,685.289185 
	C852.096375,685.943115 851.552673,686.552246 850.692993,687.603333 
	C845.534180,684.514648 840.341187,681.628845 835.455688,678.292847 
	C834.472534,677.621460 834.109741,675.136475 834.390625,673.665100 
	C836.323608,663.540100 838.372681,653.432190 840.672729,643.384888 
	C841.513794,639.710754 840.508240,637.443237 837.432983,635.432068 
	C790.780334,604.921631 744.174561,574.339539 697.545715,543.792664 
	C668.174622,524.551453 638.812012,505.296570 609.329468,486.227386 
	C607.574280,485.092133 604.164001,484.585205 602.653809,485.551575 
	C601.181396,486.493774 600.336792,489.815552 600.621948,491.900391 
	C606.806396,537.116150 613.218323,582.300781 619.405090,627.516235 
	C619.622131,629.102417 618.459534,631.760254 617.129272,632.546082 
	C583.952881,652.143127 553.223389,675.298401 521.953674,697.668945 
	C519.549072,699.389160 517.496460,701.697937 519.409485,704.208740 
	C520.645447,705.830872 524.047302,707.107544 526.045227,706.649475 
	C557.664429,699.398499 589.231140,691.915283 620.768555,684.313782 
	C631.724426,681.673096 631.666931,681.464050 637.786987,691.009033 
	C641.922852,697.459534 646.078979,703.897095 650.427368,710.639404 
z"/>
<path fill="#020202" opacity="1.000000" stroke="none" 
	d="
M402.489990,382.537476 
	C410.544067,355.987732 422.028748,330.989838 436.489227,307.335602 
	C463.415649,263.289764 499.222839,228.190094 543.170898,201.249741 
	C579.600647,178.918137 618.690979,163.473526 660.768433,155.845154 
	C699.543701,148.815506 738.335144,149.108643 777.046021,156.418259 
	C778.474060,156.687912 780.384216,158.576477 780.683289,160.001572 
	C783.385803,172.877563 785.882263,185.800537 788.135559,198.762512 
	C788.428406,200.447052 787.551147,203.043457 786.284851,204.182526 
	C771.301941,217.661118 756.202332,231.012848 740.948730,244.184052 
	C739.118225,245.764679 736.264771,246.592758 733.775024,246.914017 
	C684.044434,253.330872 634.281189,259.496643 584.560425,265.987976 
	C557.304382,269.546417 530.105774,273.552673 502.910767,277.556915 
	C500.679688,277.885437 498.168274,279.294189 496.640869,280.976288 
	C466.966919,313.655609 437.422974,346.452972 407.837341,379.212555 
	C406.612762,380.568542 405.241943,381.792419 403.421082,382.995667 
	C402.765289,382.788116 402.627655,382.662811 402.489990,382.537476 
z"/>
<path fill="#020202" opacity="1.000000" stroke="none" 
	d="
M665.522400,393.645630 
	C637.402222,390.646973 609.729797,387.745728 582.078613,384.653442 
	C580.237061,384.447479 577.944519,383.226746 576.893127,381.745758 
	C554.917725,350.791412 533.090271,319.732056 511.249329,288.682343 
	C510.988159,288.311035 510.931946,287.795502 510.600342,286.816986 
	C582.864624,277.137451 654.912659,267.486877 726.960754,257.836304 
	C727.158569,258.236877 727.356323,258.637451 727.554138,259.038025 
	C720.886414,266.820984 714.238037,274.620697 707.544434,282.381378 
	C702.647644,288.058807 697.752075,293.739624 692.733093,299.308167 
	C690.600037,301.674835 690.252441,303.950195 691.229431,307.031982 
	C698.411621,329.688141 705.510376,352.371948 712.423828,375.111389 
	C714.776794,382.850739 716.522156,390.774811 718.658081,399.052124 
	C701.055908,397.263275 683.515503,395.480713 665.522400,393.645630 
z"/>
<path fill="#020202" opacity="1.000000" stroke="none" 
	d="
M790.277649,146.723053 
	C798.120422,154.394577 805.688538,162.375290 813.880615,169.653763 
	C822.696594,177.486572 829.242249,186.840210 835.012207,196.969559 
	C843.071960,211.118683 851.579163,225.013397 859.605347,239.181046 
	C863.188232,245.505615 862.603882,253.002548 859.017029,258.403259 
	C831.398438,299.988403 803.201172,341.188995 775.278625,382.573151 
	C773.639587,385.002380 772.035217,385.285889 769.484558,384.535217 
	C754.320068,380.072052 739.108826,375.766663 723.965759,371.233154 
	C722.696899,370.853302 721.239197,369.362488 720.838684,368.084106 
	C714.483582,347.795990 708.225281,327.476532 702.186157,307.092773 
	C701.761597,305.659668 702.778137,303.292603 703.873901,301.990509 
	C728.545044,272.675110 753.995667,244.108490 783.751099,219.719193 
	C787.610229,216.555984 790.966553,212.750137 794.962585,209.791336 
	C798.950684,206.838379 799.521240,203.386856 798.641968,198.882843 
	C795.771912,184.181534 793.116455,169.438202 790.407837,154.705643 
	C790.016785,152.578873 789.786865,150.422470 789.690552,147.687057 
	C790.025024,146.970551 790.151367,146.846786 790.277649,146.723053 
z"/>
<path fill="#030303" opacity="1.000000" stroke="none" 
	d="
M961.457764,704.541382 
	C995.807251,735.292419 1029.896606,765.803406 1064.646118,796.905151 
	C970.851379,778.963440 878.100586,761.221375 784.934753,743.399902 
	C787.410767,742.491089 789.669617,741.588745 791.974854,740.826721 
	C841.380371,724.495056 890.809998,708.235718 940.165710,691.755127 
	C944.211548,690.404175 946.868225,690.801392 949.780823,693.846680 
	C953.339661,697.567627 957.370728,700.836792 961.457764,704.541382 
z"/>
<path fill="#030303" opacity="1.000000" stroke="none" 
	d="
M629.498962,512.380615 
	C653.116638,527.631531 676.771484,542.825256 700.342102,558.148560 
	C726.706421,575.288025 753.003723,592.530579 779.312012,609.756104 
	C795.460266,620.329224 811.610474,630.900879 827.633362,641.661438 
	C828.876709,642.496460 829.948242,644.965332 829.691833,646.428101 
	C828.233337,654.749878 826.346863,662.996643 824.431885,672.096008 
	C817.702698,668.040527 811.228271,664.449951 805.100647,660.342102 
	C800.614014,657.334412 797.322083,657.512268 793.318359,661.423157 
	C778.804321,675.600769 763.983215,689.464050 749.345032,703.382141 
	C709.119080,640.118469 669.004395,577.029907 629.005127,513.387939 
	C629.246704,512.683167 629.372864,512.531921 629.498962,512.380615 
z"/>
<path fill="#040404" opacity="1.000000" stroke="none" 
	d="
M454.978668,510.001923 
	C451.839142,494.033081 448.677917,478.068390 445.610077,462.085785 
	C445.410278,461.044922 445.771118,459.812988 446.132874,458.759827 
	C464.617065,404.942841 483.129761,351.135651 501.637360,297.326691 
	C501.852753,296.700500 502.040863,296.064972 502.675293,294.071045 
	C524.721375,325.449463 546.238281,356.074768 568.114014,387.210693 
	C559.813477,391.655670 552.100098,395.766968 544.404358,399.910950 
	C521.845947,412.058167 499.321198,424.268250 476.715363,436.326447 
	C472.745667,438.443939 470.743134,441.177765 469.760223,445.765564 
	C465.684631,464.787872 461.018799,483.683197 456.674500,502.649170 
	C456.205811,504.695312 456.417480,506.897308 456.051514,509.471863 
	C455.519196,509.945129 455.248932,509.973511 454.978668,510.001923 
z"/>
<path fill="#050404" opacity="1.000000" stroke="none" 
	d="
M715.326172,669.734985 
	C723.934509,683.588806 732.339417,697.141968 740.723877,710.662170 
	C738.422119,712.883240 736.221313,715.006958 733.788757,717.354248 
	C726.696350,711.477783 719.407715,705.453613 712.135071,699.410400 
	C685.893311,677.604675 659.639954,655.812805 633.465820,633.926208 
	C632.083984,632.770691 630.715271,630.887207 630.475525,629.182983 
	C625.211426,591.765869 620.107422,554.326172 614.978333,516.890076 
	C614.866821,516.076477 614.819336,515.254089 615.176331,514.195251 
	C650.761292,564.498718 682.489807,617.258972 715.326172,669.734985 
z"/>
<path fill="#040404" opacity="1.000000" stroke="none" 
	d="
M670.670776,678.299316 
	C696.031067,699.667542 721.053284,720.883118 746.289673,741.840759 
	C749.698486,744.671692 750.734009,747.297546 750.021423,751.554138 
	C745.795837,776.794373 741.797119,802.072510 737.551147,828.398376 
	C705.848694,778.331299 674.610779,728.997925 643.072144,679.189575 
	C650.429993,677.478638 657.299133,675.531006 664.303040,674.492065 
	C666.118774,674.222656 668.356384,676.797241 670.670776,678.299316 
z"/>
<path fill="#050505" opacity="1.000000" stroke="none" 
	d="
M486.262085,310.244324 
	C481.534668,325.147400 476.972717,340.105469 472.040588,354.940491 
	C464.853973,376.556732 457.444305,398.099396 449.974976,419.619720 
	C449.411926,421.241943 447.883942,423.142975 446.352570,423.724670 
	C416.975525,434.883698 387.531067,445.865234 358.097260,456.874695 
	C357.504730,457.096313 356.872711,457.212280 354.776520,457.776947 
	C359.291077,452.071686 363.021423,447.429810 366.675323,442.728516 
	C396.988220,403.726440 431.538574,368.480469 464.750244,332.047791 
	C471.482727,324.662354 478.208527,317.270813 485.387299,309.862061 
	C485.978821,309.976105 486.120422,310.110199 486.262085,310.244324 
z"/>
<path fill="#070707" opacity="1.000000" stroke="none" 
	d="
M869.555359,770.395508 
	C919.970093,779.949829 969.965393,789.410645 1019.960632,798.871521 
	C1019.929810,799.032532 1019.898987,799.193542 1019.868164,799.354553 
	C1009.997925,799.354553 1000.126404,799.462280 990.257812,799.337036 
	C928.268188,798.550293 866.278992,797.731140 804.291565,796.795715 
	C802.446899,796.767883 799.919800,795.860657 798.898926,794.482971 
	C788.982361,781.101074 779.317078,767.532959 769.595764,754.006775 
	C769.234985,753.504700 769.034302,752.887634 768.398499,751.586304 
	C802.417908,757.906677 835.776917,764.104370 869.555359,770.395508 
z"/>
<path fill="#050404" opacity="1.000000" stroke="none" 
	d="
M887.300415,209.320312 
	C882.156616,219.382614 877.172119,229.107300 871.740601,239.704086 
	C860.631226,220.634460 849.983826,202.357788 839.079468,183.640121 
	C867.981873,162.714981 896.728271,141.902863 926.092346,120.643463 
	C926.812561,127.201660 928.254211,132.740311 924.790894,139.001419 
	C911.995178,162.133789 899.849609,185.625824 887.300415,209.320312 
z"/>
<path fill="#070707" opacity="1.000000" stroke="none" 
	d="
M907.531921,686.502930 
	C906.620300,691.351501 903.745361,693.254333 899.473938,694.421387 
	C892.431946,696.345337 885.621887,699.106750 878.611633,701.166077 
	C876.836426,701.687561 874.387451,701.443054 872.744385,700.592163 
	C868.349426,698.315979 864.223755,695.519897 859.248291,692.475891 
	C890.913391,649.270752 922.325500,606.410950 953.737549,563.551147 
	C954.422485,563.919800 955.107422,564.288452 955.792297,564.657043 
	C939.756531,605.153625 923.720764,645.650208 907.531921,686.502930 
z"/>
<path fill="#0A0A0A" opacity="1.000000" stroke="none" 
	d="
M811.960571,491.036407 
	C816.617188,495.231262 820.996948,499.205597 825.975281,503.723114 
	C819.045044,503.723114 812.963440,503.844025 806.895691,503.607391 
	C805.850769,503.566650 804.346558,502.205261 803.928894,501.118042 
	C796.002014,480.481323 788.179138,459.804260 780.440796,439.096008 
	C779.884216,437.606445 780.042542,435.812317 780.039185,434.159454 
	C780.013367,421.505829 779.978821,408.851624 780.093689,396.198944 
	C780.109253,394.488525 780.517822,392.495392 781.458191,391.121796 
	C802.696960,360.098480 824.035583,329.143616 845.350708,298.172607 
	C845.629456,297.767517 845.845398,297.319275 847.119446,297.448944 
	C846.711487,298.672913 846.423889,299.953522 845.877991,301.112549 
	C831.868347,330.859222 817.774963,360.566742 803.882080,390.367737 
	C802.390564,393.566925 801.379944,397.275452 801.263733,400.784668 
	C800.475708,424.577087 800.195618,448.387665 799.255066,472.172729 
	C799.024658,477.998901 800.536255,482.066437 805.243774,485.294220 
	C807.562439,486.884003 809.547607,488.959961 811.960571,491.036407 
z"/>
<path fill="#050505" opacity="1.000000" stroke="none" 
	d="
M786.472290,697.556213 
	C791.137695,688.341675 795.607666,679.445496 800.398193,669.911438 
	C821.298401,682.143982 841.731323,694.102966 863.036987,706.572815 
	C830.196716,717.316956 798.400696,727.719482 765.711487,738.414185 
	C772.833679,724.374573 779.555237,711.124573 786.472290,697.556213 
z"/>
<path fill="#040404" opacity="1.000000" stroke="none" 
	d="
M761.638428,499.140808 
	C755.206726,479.041565 748.750427,458.950165 742.350891,438.840698 
	C736.762146,421.279297 731.234741,403.698395 725.692017,386.122406 
	C725.400146,385.197113 725.216797,384.237640 724.704529,382.170624 
	C738.691162,386.241333 751.985535,390.110596 765.619629,394.546997 
	C765.974487,400.811249 765.901245,406.510223 766.022705,412.204987 
	C766.296814,425.053925 766.805176,437.899139 766.961060,450.748993 
	C767.127808,464.495239 766.941467,478.245483 767.036316,491.993103 
	C767.063354,495.917358 765.469543,498.291534 761.638428,499.140808 
z"/>
<path fill="#070707" opacity="1.000000" stroke="none" 
	d="
M767.359497,768.651611 
	C775.365723,779.707214 783.152161,790.480042 791.266235,801.706299 
	C776.920776,811.774536 762.724670,821.738037 747.410217,832.486328 
	C751.446472,807.262573 755.277283,783.322327 759.306335,758.143188 
	C762.376770,762.151306 764.758240,765.260071 767.359497,768.651611 
z"/>
<path fill="#0C0B0B" opacity="1.000000" stroke="none" 
	d="
M630.034668,655.023560 
	C636.046082,650.744385 640.793579,651.797546 645.399170,656.905090 
	C648.256042,660.073303 651.841614,662.584290 655.725159,665.928589 
	C622.550293,673.670837 590.114075,681.240662 557.677795,688.810486 
	C557.560730,688.516357 557.443665,688.222229 557.326538,687.928101 
	C581.441345,677.000366 605.556152,666.072632 630.034668,655.023560 
z"/>
<path fill="#0C0B0B" opacity="1.000000" stroke="none" 
	d="
M761.643188,499.537018 
	C765.469543,498.291534 767.063354,495.917358 767.036316,491.993103 
	C766.941467,478.245483 767.127808,464.495239 766.961060,450.748993 
	C766.805176,437.899139 766.296814,425.053925 766.022705,412.204987 
	C765.901245,406.510223 765.974487,400.811249 765.970764,394.731628 
	C769.279541,394.451691 770.390564,396.048553 770.342041,399.408081 
	C770.166687,411.551208 770.318420,423.698761 770.305115,435.844574 
	C770.277344,461.105896 770.116150,486.368195 770.343628,511.627075 
	C770.366516,514.172607 772.103943,517.292542 774.020996,519.126343 
	C781.295715,526.085510 788.971558,532.625305 796.954529,539.728577 
	C789.341125,539.728577 782.445435,539.839294 775.562622,539.591614 
	C774.679321,539.559875 773.455444,537.795471 773.078552,536.613892 
	C769.186951,524.412964 765.437134,512.166809 761.643188,499.537018 
z"/>
<path fill="#0C0B0B" opacity="1.000000" stroke="none" 
	d="
M552.799194,408.626740 
	C547.330872,414.163086 541.832397,419.670227 536.419006,425.259735 
	C535.303650,426.411407 533.942017,427.755981 533.648376,429.205048 
	C530.889282,442.819611 528.337646,456.476196 525.411011,470.551147 
	C524.757202,470.987000 524.418518,470.992432 524.079834,470.997864 
	C520.278137,456.912903 516.476440,442.827942 512.557312,428.307770 
	C525.572754,421.386292 538.300110,414.617981 551.633179,408.022827 
	C552.425659,408.339600 552.612427,408.483185 552.799194,408.626740 
z"/>
<path fill="#101010" opacity="1.000000" stroke="none" 
	d="
M935.024658,176.097382 
	C936.306763,175.391296 937.267212,174.853271 938.319458,174.263840 
	C939.823730,180.415588 937.785339,184.273560 933.127197,188.159225 
	C920.362488,198.806992 908.180420,210.152817 895.751404,221.203964 
	C894.508911,222.308716 893.154907,223.288040 891.264587,223.627899 
	C896.182068,214.288544 901.070007,204.933365 906.051636,195.628357 
	C906.731201,194.358978 907.666260,193.003601 908.844116,192.259384 
	C917.411804,186.845886 926.072083,181.578796 935.024658,176.097382 
z"/>
<path fill="#101010" opacity="1.000000" stroke="none" 
	d="
M773.024170,695.019409 
	C774.813232,693.038818 776.350952,691.309082 777.888672,689.579346 
	C778.205933,689.820740 778.523254,690.062073 778.840576,690.303467 
	C771.192322,705.396545 763.544067,720.489685 755.583496,736.199097 
	C751.194519,732.452148 747.100769,728.957275 743.606140,725.973816 
	C753.431213,715.631042 763.102051,705.450623 773.024170,695.019409 
z"/>
<path fill="#101010" opacity="1.000000" stroke="none" 
	d="
M454.948730,510.422913 
	C455.248932,509.973511 455.519196,509.945129 456.195557,509.880249 
	C464.351288,518.243408 472.101013,526.643066 479.015961,534.137939 
	C473.819611,534.137939 466.675629,534.137939 459.245056,534.137939 
	C457.753296,526.105835 456.336029,518.474854 454.948730,510.422913 
z"/>
<path fill="#101010" opacity="1.000000" stroke="none" 
	d="
M524.054443,471.394196 
	C524.418518,470.992432 524.757202,470.987000 525.349976,470.985168 
	C529.131348,474.476318 532.567261,478.062897 536.208252,481.427521 
	C541.216370,486.055481 546.379578,490.515533 552.139099,495.636780 
	C544.362854,495.636780 537.371887,495.636780 529.851562,495.636780 
	C527.951355,487.854462 525.990234,479.822510 524.054443,471.394196 
z"/>
<path fill="#101010" opacity="1.000000" stroke="none" 
	d="
M841.195190,162.930496 
	C842.438782,164.299255 843.419250,165.415237 844.718933,166.894501 
	C841.112122,169.580780 837.600525,172.196075 834.167236,174.753082 
	C824.385803,168.451157 829.622986,158.443756 827.077698,150.461319 
	C827.641174,150.023132 828.204590,149.584946 828.768005,149.146759 
	C832.822693,153.657074 836.877441,158.167389 841.195190,162.930496 
z"/>
<path fill="#101010" opacity="1.000000" stroke="none" 
	d="
M616.603149,644.609497 
	C619.507202,642.977966 622.110046,641.552429 624.902954,640.022766 
	C626.383118,641.341736 627.827148,642.628601 629.745178,644.337708 
	C617.456116,649.884033 605.660522,655.207581 593.864929,660.531189 
	C593.664368,660.149231 593.463806,659.767273 593.263245,659.385315 
	C600.942810,654.528687 608.622437,649.672119 616.603149,644.609497 
z"/>
<path fill="#0C0B0B" opacity="1.000000" stroke="none" 
	d="
M554.105591,407.101074 
	C553.828003,407.524811 553.550415,407.948547 553.036011,408.499512 
	C552.612427,408.483185 552.425659,408.339600 551.980286,407.955200 
	C552.152649,407.370575 552.583618,407.026764 553.426880,406.760864 
	C553.839111,406.838776 554.105591,407.101074 554.105591,407.101074 
z"/>
<path fill="#050505" opacity="1.000000" stroke="none" 
	d="
M485.629395,309.636108 
	C485.801819,308.989197 486.182098,308.548248 487.039185,307.554321 
	C486.881500,308.784729 486.812012,309.326996 486.502289,310.056793 
	C486.120422,310.110199 485.978821,309.976105 485.629395,309.636108 
z"/>
<path fill="#020202" opacity="1.000000" stroke="none" 
	d="
M403.103271,383.108032 
	C402.980255,383.501526 402.656891,383.700470 402.333496,383.899414 
	C402.276642,383.608643 402.219757,383.317902 402.326447,382.782288 
	C402.627655,382.662811 402.765289,382.788116 403.103271,383.108032 
z"/>
<path fill="#020202" opacity="1.000000" stroke="none" 
	d="
M789.703735,147.274231 
	C789.420959,147.039093 789.333130,146.624084 789.245239,146.209076 
	C789.494446,146.207550 789.743652,146.206039 790.135254,146.463776 
	C790.151367,146.846786 790.025024,146.970551 789.703735,147.274231 
z"/>
<path fill="#0C0B0B" opacity="1.000000" stroke="none" 
	d="
M553.708252,406.705261 
	C553.975525,406.428131 554.373779,406.284515 554.771973,406.140900 
	C554.748779,406.405853 554.725647,406.670776 554.404053,407.018402 
	C554.105591,407.101074 553.839111,406.838776 553.708252,406.705261 
z"/>
<path fill="#030303" opacity="1.000000" stroke="none" 
	d="
M628.922852,513.054199 
	C628.453369,512.940308 628.181396,512.606689 627.909424,512.273071 
	C628.261536,512.164795 628.613708,512.056458 629.232422,512.164368 
	C629.372864,512.531921 629.246704,512.683167 628.922852,513.054199 
z"/>
<path fill="#070707" opacity="1.000000" stroke="none" 
	d="
M889.929199,906.739807 
	C899.823853,909.977661 904.254761,916.290955 903.399475,925.423645 
	C902.621582,933.729919 896.904968,939.610291 887.263184,940.182983 
	C876.348572,940.831360 865.365845,940.332581 854.148926,940.332581 
	C854.148926,929.044189 854.148926,917.966003 854.148926,906.664978 
	C865.996277,906.664978 877.757751,906.664978 889.929199,906.739807 
z"/>
<path fill="#0A0A0A" opacity="1.000000" stroke="none" 
	d="
M999.124268,916.845215 
	C1001.968689,926.400269 1004.730103,935.560364 1007.660278,945.280396 
	C994.328064,945.280396 981.676636,945.280396 968.472900,945.280396 
	C971.822815,934.561951 975.014709,924.149963 978.359253,913.787170 
	C979.199219,911.184753 980.078308,906.988159 981.721436,906.565674 
	C985.941772,905.480469 990.605103,905.992615 995.079895,906.164185 
	C995.720581,906.188721 996.522827,907.788879 996.860413,908.791199 
	C997.706604,911.304077 998.329102,913.892334 999.124268,916.845215 
z"/>
<path fill="#040404" opacity="1.000000" stroke="none" 
	d="
M366.346283,909.479675 
	C382.357147,919.700562 387.115204,940.009216 377.413391,955.565613 
	C367.636475,971.242432 345.250763,975.889221 328.836487,965.649231 
	C316.676361,958.063232 311.484192,943.551453 315.531708,928.463562 
	C319.129028,915.054016 331.311218,905.205200 346.290405,905.185608 
	C352.868500,905.176941 359.450134,907.834900 366.346283,909.479675 
z"/>
<path fill="#070707" opacity="1.000000" stroke="none" 
	d="
M647.100464,940.899109 
	C651.086182,947.264832 654.885437,953.317688 658.645203,959.307556 
	C652.131531,968.608337 643.830994,972.365356 635.729736,969.785461 
	C629.020020,967.648682 624.076904,960.836243 624.191589,953.883911 
	C624.345215,944.576538 630.976562,937.355896 642.678040,934.033142 
	C644.050659,936.156616 645.482300,938.371399 647.100464,940.899109 
z"/>
<path fill="#010101" opacity="1.000000" stroke="none" 
	d="
M441.037811,902.215332 
	C441.751801,902.850830 442.903839,903.890320 442.912842,904.939575 
	C443.032715,918.866638 443.007782,932.795166 442.944977,946.723022 
	C442.941895,947.408875 442.259277,948.091736 441.508911,948.882935 
	C441.064636,933.534607 441.004578,918.079224 441.037811,902.215332 
z"/>
<path fill="#010000" opacity="1.000000" stroke="none" 
	d="
M422.965240,978.556458 
	C419.025055,976.692383 418.846161,974.441833 422.528870,970.075928 
	C422.940460,972.705078 422.996918,975.409241 422.965240,978.556458 
z"/>
<path fill="#010101" opacity="1.000000" stroke="none" 
	d="
M441.024292,956.454590 
	C444.620178,959.003052 443.278687,962.388184 441.534912,965.881653 
	C441.085571,962.958313 441.008179,959.929077 441.024292,956.454590 
z"/>
<path fill="#010000" opacity="1.000000" stroke="none" 
	d="
M422.963165,957.561707 
	C419.546783,955.689270 420.638458,952.960876 422.505371,950.097229 
	C422.930725,952.375183 422.989746,954.749634 422.963165,957.561707 
z"/>
<path fill="#010000" opacity="1.000000" stroke="none" 
	d="
M445.773926,967.274475 
	C446.766907,967.002014 447.507263,967.001587 448.617859,967.001221 
	C449.628479,967.676941 450.268829,968.352600 451.023499,969.362671 
	C448.347351,969.742432 445.556854,969.787781 442.311951,969.723999 
	C443.078796,968.925415 444.300018,968.235962 445.773926,967.274475 
z"/>
</svg>